# xmcd
#
# Track frame offsets: 
#        150
#        16627
#        30865
#        49121
#        64393
#        76515
#        96377
#        113715
#
# Disc length: 1730 seconds
#
# Revision: 0
# Processed by: cddbd v1.5.2PL0 Copyright (c) Steve Scherf et al.
# Submitted via: ExactAudioCopyFreeDBPlugin 1.0
#
DISCID=5106c008
DTITLE=The Whiskey Belles - Whiskey Woman
DYEAR=2012
DGENRE=Country
TTITLE0=Whiskey Woman
TTITLE1=Borrowed Trouble
TTITLE2=Genuine
TTITLE3=The Other Girl
TTITLE4=Pills I Took
TTITLE5=California
TTITLE6=Kisses (Honey Do)
TTITLE7=This Ain't It
EXTD=
EXTT0=
EXTT1=
EXTT2=
EXTT3=
EXTT4=
EXTT5=
EXTT6=
EXTT7=
PLAYORDER=
